<svg width="29" height="28" viewBox="0 0 29 28" fill="none" xmlns="http://www.w3.org/2000/svg">
<g id="fluent:contact-card-28-filled">
<path id="Vector" d="M5.25391 4C4.52456 4 3.82509 4.28973 3.30936 4.80546C2.79364 5.32118 2.50391 6.02065 2.50391 6.75V21.25C2.50391 21.9793 2.79364 22.6788 3.30936 23.1945C3.82509 23.7103 4.52456 24 5.25391 24H23.7499C24.4793 24 25.1787 23.7103 25.6945 23.1945C26.2102 22.6788 26.4999 21.9793 26.4999 21.25V6.75C26.4999 6.02065 26.2102 5.32118 25.6945 4.80546C25.1787 4.28973 24.4793 4 23.7499 4H5.25391ZM15.4999 11.75C15.4999 11.5511 15.5789 11.3603 15.7196 11.2197C15.8602 11.079 16.051 11 16.2499 11H21.7499C21.9488 11 22.1396 11.079 22.2802 11.2197C22.4209 11.3603 22.4999 11.5511 22.4999 11.75C22.4999 11.9489 22.4209 12.1397 22.2802 12.2803C22.1396 12.421 21.9488 12.5 21.7499 12.5H16.2499C16.051 12.5 15.8602 12.421 15.7196 12.2803C15.5789 12.1397 15.4999 11.9489 15.4999 11.75ZM16.2499 15H21.7499C21.9488 15 22.1396 15.079 22.2802 15.2197C22.4209 15.3603 22.4999 15.5511 22.4999 15.75C22.4999 15.9489 22.4209 16.1397 22.2802 16.2803C22.1396 16.421 21.9488 16.5 21.7499 16.5H16.2499C16.051 16.5 15.8602 16.421 15.7196 16.2803C15.5789 16.1397 15.4999 15.9489 15.4999 15.75C15.4999 15.5511 15.5789 15.3603 15.7196 15.2197C15.8602 15.079 16.051 15 16.2499 15ZM11.7499 11.75C11.7499 12.2141 11.5655 12.6592 11.2373 12.9874C10.9092 13.3156 10.464 13.5 9.99991 13.5C9.53578 13.5 9.09066 13.3156 8.76247 12.9874C8.43428 12.6592 8.24991 12.2141 8.24991 11.75C8.24991 11.2859 8.43428 10.8408 8.76247 10.5126C9.09066 10.1844 9.53578 10 9.99991 10C10.464 10 10.9092 10.1844 11.2373 10.5126C11.5655 10.8408 11.7499 11.2859 11.7499 11.75ZM7.49991 14.5H12.4999C12.7651 14.5 13.0195 14.6054 13.207 14.7929C13.3945 14.9804 13.4999 15.2348 13.4999 15.5V16C13.4999 16 12.9999 18.5 9.99991 18.5C6.99991 18.5 6.49991 16 6.49991 16V15.5C6.49991 15.2348 6.60526 14.9804 6.7928 14.7929C6.98034 14.6054 7.23469 14.5 7.49991 14.5Z" fill="white"/>
</g>
</svg>
