<svg width="34" height="34" viewBox="0 0 34 34" fill="none" xmlns="http://www.w3.org/2000/svg">
<rect width="34" height="34" fill="#1E1E1E"/>
<g clip-path="url(#clip0_0_1)">
<rect width="1440" height="1249" transform="translate(-1384 -10)" fill="#C4C4C4"/>
<mask id="path-1-inside-1_0_1" fill="white">
<path d="M-1110 -10H56V50H-1110V-10Z"/>
</mask>
<path d="M-1110 -10H56V50H-1110V-10Z" fill="white"/>
<path fill-rule="evenodd" clip-rule="evenodd" d="M14.4274 17.8768C14.6359 17.8255 14.9444 18.1243 14.9444 18.1243C14.9444 18.1243 17.1865 19.5224 17.1926 19.5224C17.4744 19.5224 19.816 18.1243 19.816 18.1243C19.816 18.1243 20.1245 17.8255 20.333 17.8768C22.5738 18.4274 24.8437 19.5502 24.8437 21.2393V24.0834H9.91675V21.2393C9.91675 19.5502 12.1867 18.4274 14.4274 17.8768ZM12.4046 21.5957C12.4046 21.3667 12.5902 21.1811 12.8192 21.1811H14.8924C15.1214 21.1811 15.307 21.3667 15.307 21.5957C15.307 21.8247 15.1214 22.0104 14.8924 22.0104H12.8192C12.5902 22.0104 12.4046 21.8247 12.4046 21.5957ZM21.1938 19.9995C21.1681 19.9164 21.0559 19.9164 21.0301 19.9995L20.7955 20.756C20.7839 20.7932 20.7508 20.8184 20.7136 20.8184H19.9543C19.8709 20.8184 19.8362 20.9302 19.9037 20.9815L20.518 21.4491C20.5482 21.4721 20.5608 21.5128 20.5492 21.5499L20.3146 22.3065C20.2888 22.3896 20.3796 22.4587 20.4471 22.4074L21.0614 21.9397C21.0916 21.9168 21.1324 21.9168 21.1626 21.9397L21.7768 22.4074C21.8443 22.4587 21.9351 22.3896 21.9093 22.3065L21.6747 21.5499C21.6631 21.5128 21.6758 21.4721 21.706 21.4491L22.3202 20.9815C22.3877 20.9302 22.353 20.8184 22.2696 20.8184H21.5103C21.4731 20.8184 21.44 20.7932 21.4284 20.756L21.1938 19.9995Z" fill="#333333"/>
<path fill-rule="evenodd" clip-rule="evenodd" d="M13.6487 13.3032V12.0593H14.478V13.3032C14.478 14.9062 15.7774 16.2057 17.3804 16.2057C18.9834 16.2057 20.2829 14.9062 20.2829 13.3032V12.0593H21.1122V13.3032C21.1122 15.3642 19.4414 17.035 17.3804 17.035C15.3194 17.035 13.6487 15.3642 13.6487 13.3032Z" fill="#333333"/>
<path fill-rule="evenodd" clip-rule="evenodd" d="M13.2427 11.8145C13.2616 11.7159 13.3518 11.6443 13.4572 11.6443H21.3033C21.4087 11.6443 21.4989 11.7159 21.5177 11.8145L21.5178 11.815L21.518 11.8155L21.5182 11.8167L21.5187 11.8196L21.5199 11.8271C21.5207 11.8329 21.5217 11.8405 21.5227 11.8494C21.5246 11.8675 21.5263 11.8917 21.5266 11.9212C21.5271 11.9802 21.5216 12.0609 21.4993 12.156C21.4541 12.3482 21.3414 12.5925 21.0833 12.8299C20.5716 13.3006 19.5203 13.7175 17.3802 13.7175C15.2402 13.7175 14.1889 13.3006 13.6772 12.8299C13.4191 12.5925 13.3064 12.3482 13.2612 12.156C13.2389 12.0609 13.2334 11.9802 13.2339 11.9212C13.2342 11.8917 13.2359 11.8675 13.2378 11.8494C13.2388 11.8405 13.2398 11.8329 13.2406 11.8271L13.2418 11.8196L13.2423 11.8167L13.2425 11.8155L13.2427 11.815L13.2427 11.8145Z" fill="#333333"/>
<path fill-rule="evenodd" clip-rule="evenodd" d="M13.1049 10.815C13.0733 10.7654 13.0412 10.7155 13.0089 10.6652C12.7153 10.2092 12.4048 9.72692 12.4048 9.19656C12.4048 8.86452 12.6205 8.58493 12.9061 8.36385C13.9676 7.54209 17.3804 7.08325 17.3804 7.08325C17.3804 7.08325 20.7933 7.5421 21.8548 8.36385C22.1403 8.58493 22.3561 8.86452 22.3561 9.19656C22.3561 9.80123 22.0137 10.3234 21.6888 10.815H13.1049ZM18.417 8.88001C18.417 8.88001 17.6569 8.60359 17.3804 8.32716C17.104 8.60359 16.3438 8.88001 16.3438 8.88001C16.3438 8.88001 16.5512 10.4003 17.3804 10.4003C18.2097 10.4003 18.417 8.88001 18.417 8.88001Z" fill="#333333"/>
<rect x="0.708333" y="0.708333" width="32.5833" height="32.5833" rx="16.2917" stroke="black" stroke-width="1.41667"/>
<path d="M56 49H-1110V51H56V49Z" fill="black" fill-opacity="0.68" mask="url(#path-1-inside-1_0_1)"/>
</g>
<defs>
<clipPath id="clip0_0_1">
<rect width="1440" height="1249" fill="white" transform="translate(-1384 -10)"/>
</clipPath>
</defs>
</svg>
